<svg id="round-room-24px" xmlns="http://www.w3.org/2000/svg" width="62" height="62" viewBox="0 0 62 62">
  <path id="Path_357" data-name="Path 357" d="M0,0H62V62H0Z" fill="none"/>
  <path id="Path_358" data-name="Path 358" d="M23.083,2A18.07,18.07,0,0,0,5,20.083C5,30.856,16.418,45.71,21.12,51.368a2.565,2.565,0,0,0,3.952,0c4.676-5.657,16.094-20.512,16.094-31.284A18.07,18.07,0,0,0,23.083,2Zm0,24.542a6.458,6.458,0,1,1,6.458-6.458A6.461,6.461,0,0,1,23.083,26.542Z" transform="translate(7.917 3.167)" fill="#fff"/>
</svg>
