<svg xmlns="http://www.w3.org/2000/svg" width="351.186" height="53" viewBox="0 0 351.186 53">
  <g id="Group_530" data-name="Group 530" transform="translate(-63 -86)" opacity="0.88">
    <g id="round-get_app-24px" transform="translate(63 86)">
      <path id="Path_355" data-name="Path 355" d="M0,0H53V53H0Z" fill="none"/>
      <path id="Path_356" data-name="Path 356" d="M30.595,16.25H27.083V5.208A2.215,2.215,0,0,0,24.875,3H16.042a2.215,2.215,0,0,0-2.208,2.208V16.25H10.322a2.215,2.215,0,0,0-1.568,3.776L18.89,30.163a2.2,2.2,0,0,0,3.114,0L32.14,20.026A2.209,2.209,0,0,0,30.595,16.25ZM5,38.333a2.215,2.215,0,0,0,2.208,2.208h26.5a2.208,2.208,0,1,0,0-4.417H7.208A2.215,2.215,0,0,0,5,38.333Z" transform="translate(6.042 3.625)" fill="#ffaa34"/>
    </g>
    <text id="Скачать_в_Google_Play" data-name="Скачать в Google Play" transform="translate(262.186 119.593)" fill="#ffaa34" font-size="29" font-family="Helvetica"><tspan x="-151.832" y="0">Скачать в Google Play</tspan></text>
  </g>
</svg>
