<svg xmlns="http://www.w3.org/2000/svg" width="104.395" height="136.172" viewBox="0 0 104.395 136.172"><path d="M21.277,9.462c-4.149-4.237-13.106,2.213-7.46,7.975-2.083.719-8.2,4.646,3.475,29.712l91.3,6.649a6.258,6.258,0,0,0,2.274-8.352c.921-.669,2.73-9.761-5.9-9.761,0,0,8.479-5.971,1.693-12.9,3.588-3.661-1.884-13.045-8.195-9.725,0-6.865-9.981-6.865-9.981-.057H60.652C63.708,9.458,56.846-.746,49.518,6.732,46.753,4.5,43.14,4.5,41.411,8.466,41.411,8.466,26.319,9.553,21.277,9.462Z" transform="translate(-7.285 0.616)" fill="#f5cfa0"/><path d="M49.752,33.071c-.159,1.609-4.117,1.972-3.588-1.711-2.519-.763-2.68-6.609,2.067-4.375,1.525-3.652,7.058-1.4,4.3,2.93C54.636,32.079,52.132,35.513,49.752,33.071ZM78.66,21.723c-.161,1.609-4.119,1.972-3.588-1.711-2.521-.763-2.682-6.609,2.065-4.376,1.527-3.652,7.06-1.4,4.3,2.93C83.542,20.732,81.036,24.165,78.66,21.723ZM30.2,14.915c.159,1.609,4.115,1.972,3.586-1.711,2.521-.763,2.682-6.609-2.065-4.375-1.525-3.652-7.056-1.4-4.3,2.93C25.321,13.923,27.824,17.357,30.2,14.915Z" transform="translate(13.387 4.353)" fill="#b47d56"/><path d="M46.914,35.189a5.417,5.417,0,0,0,4.841-1.348A5.5,5.5,0,0,0,59.342,32.4a2.49,2.49,0,0,0,3.089.6s-1.323,4.144,2.215,5.823c0,0-5.644,13.1,10.165,13.1,19.2,0,14.427-21.081,7.9-21.081,4.941-7.619-3.568-12.434-6.994-10.923,6.472-3.736,1.527-12.911-4.432-9.632-2.642-5.9-8.926-2.86-8.926.359-1.067-2.907-4.3-2.065-4.811-1.568C59.176,1.578,51.1.573,49.47,3.759c-5.24-5.143-12.809,2.111-7.555,7.269-4.757,3.64-.241,7.4.792,7.4-2.054,4.033,1.468,5.633,1.468,5.633a1.7,1.7,0,0,0-1.557,2.344,4.675,4.675,0,0,0-5.059.527c-7.047-6.92-12.682,1.688-10.753,4.907-4.507,1.219-5.07,7.017-5.07,9.153,0,11.456,25.175,16.642,25.177-5.805Z" transform="translate(7.169 -1.998)" fill="#ffe8bb"/><path d="M35.178,8.959c-.077.8-2.054.989-1.793-.856-1.26-.381-1.344-3.307,1.033-2.19.76-1.827,3.531-.7,2.149,1.466C37.618,8.462,36.367,10.183,35.178,8.959Z" transform="translate(20.85 1.811)" fill="#e5bc5e"/><path d="M53.793,21.581c-.077-.8-2.054-.989-1.793.856-1.26.381-1.344,3.3,1.033,2.19.76,1.827,3.531.7,2.149-1.466C56.233,22.078,54.982,20.358,53.793,21.581Z" transform="translate(44.481 22.124)" fill="#b47d56"/><path d="M63.486,25.516c1.575-.163,1.934-4.2-1.679-3.665-.742-2.571-6.475-2.735-4.287,2.111-3.579,1.561-1.364,7.2,2.875,4.389C62.512,30.5,65.88,27.942,63.486,25.516ZM36.157,11.581c-.077-.8-2.054-.989-1.793.856-1.262.381-1.341,3.3,1.033,2.19.76,1.827,3.531.7,2.149-1.466C38.6,12.078,37.346,10.358,36.157,11.581Z" transform="translate(22.093 9.429)" fill="#e5bc5e"/><path d="M22.167,16.162c-.161-1.609-4.115-1.972-3.588,1.711-2.519.763-2.68,6.609,2.067,4.375,1.521,3.652,7.056,1.4,4.3-2.93C27.046,17.154,24.545,13.72,22.167,16.162Z" transform="translate(0.952 14.507)" fill="#b47d56"/><path d="M30.984,21.915c-.161,1.609-4.115,1.972-3.588-1.711-2.519-.763-2.682-6.609,2.065-4.375,1.525-3.652,7.056-1.4,4.3,2.93C35.866,20.923,33.363,24.357,30.984,21.915Z" transform="translate(12.144 13.239)" fill="#e5bc5e"/><path d="M18.363,13.645C13.5,8.855,5.239,15.5,10.922,21.105c-3.186,1.1-2.013,10.265,4.464,7.083C18.547,31.917,29.5,30.9,25.669,20.3,28.251,18.786,26.588,9.075,18.363,13.645Z" transform="translate(-8.999 10.699)" fill="#ffe8bb"/><path d="M14.6,18.959c-.077.8-2.052.989-1.793-.856-1.262-.381-1.337-3.307,1.033-2.19.76-1.827,3.531-.7,2.149,1.466C17.043,18.462,15.793,20.183,14.6,18.959Z" transform="translate(-5.269 14.506)" fill="#e5bc5e"/><path d="M9,27.32C9,29.59,20.118,118.1,20.118,118.1H35.68L29.01,27.32C28.2,14.652,9,14.625,9,27.32Z" transform="translate(-9 18.073)" fill="#e03636"/><path d="M17.83,27.317,24.5,118.1H42.288L37.842,27.317C37.225,14.636,17.016,14.649,17.83,27.317Z" transform="translate(2.179 18.076)" fill="#e6ebef"/><path d="M26.636,27.115l4.446,90.778H46.648V27.115C46.648,15.436,26.6,14.42,26.636,27.115Z" transform="translate(13.388 18.279)" fill="#e03636"/><path d="M48.983,109.157l6.67-79.431c1.25-9.734-7.966-14.924-8.894-4.539l-4.448,90.778Z" transform="translate(33.287 20.206)" fill="#900"/><path d="M35.454,27.319V118.1H51.016s-.247-.629,4.448-90.778C56.124,14.638,35.454,14.642,35.454,27.319Z" transform="translate(24.582 18.074)" fill="#e6ebef"/><path d="M51.921,100.032l6.67-70.353c.869-9.157-5.851-12.049-6.67-2.269l-6.67,79.431Z" transform="translate(37.019 22.522)" fill="#99a8ae"/><path d="M54.862,91.677s0-2.269,6.67-61.275c.962-8.529-5.163-11.338-6.67-2.269L48.19,98.485Z" transform="translate(40.75 24.07)" fill="#900"/><path d="M24.639,8.649c-6.413-7.04-17.1,5.994-5.742,12.993-1.9,4.557,4.142,11.3,9.967,5.084,2.111,2.315,11.881,1.836,7.709-9.361C48.99,6.7,28.975-6.054,24.639,8.649Z" transform="translate(-2.779 -1.995)" fill="#ffe8bb"/><path d="M23.145,7.162c-.161-1.609-4.112-1.972-3.588,1.711-2.519.763-2.678,6.609,2.067,4.375,1.523,3.652,7.058,1.4,4.3-2.93C28.027,8.154,25.524,4.72,23.145,7.162ZM69.839,11.7c-.161-1.609-4.119-1.972-3.59,1.711-2.521.763-2.68,6.609,2.067,4.375,1.527,3.652,7.058,1.4,4.3-2.93C74.721,12.693,72.215,9.259,69.839,11.7Z" transform="translate(2.195 3.082)" fill="#e5bc5e"/></svg>