<svg xmlns="http://www.w3.org/2000/svg" width="740" height="236" viewBox="0 0 740 236"><g transform="translate(-647 -2985)"><g transform="translate(-66 -36)"><g transform="translate(713 3021)"><path d="M0,0H62V62H0Z" fill="none"/><path d="M23.083,2A18.07,18.07,0,0,0,5,20.083C5,30.856,16.418,45.71,21.12,51.368a2.565,2.565,0,0,0,3.952,0c4.676-5.657,16.094-20.512,16.094-31.284A18.07,18.07,0,0,0,23.083,2Zm0,24.542a6.458,6.458,0,1,1,6.458-6.458A6.461,6.461,0,0,1,23.083,26.542Z" transform="translate(7.917 3.167)" fill="#fff"/></g><text transform="translate(796 3061)" fill="#fff" font-size="31" font-family="Helvetica"><tspan x="0" y="0">Коворкинг Work &amp; Soda, Сухаревская, 4</tspan></text></g><g transform="translate(-66 138)"><g transform="translate(713 3021)"><path d="M0,0H62V62H0Z" fill="none"/><path d="M23.083,2A18.07,18.07,0,0,0,5,20.083C5,30.856,16.418,45.71,21.12,51.368a2.565,2.565,0,0,0,3.952,0c4.676-5.657,16.094-20.512,16.094-31.284A18.07,18.07,0,0,0,23.083,2Zm0,24.542a6.458,6.458,0,1,1,6.458-6.458A6.461,6.461,0,0,1,23.083,26.542Z" transform="translate(7.917 3.167)" fill="#fff"/></g><text transform="translate(796 3061)" fill="#fff" font-size="31" font-family="Helvetica"><tspan x="0" y="0">16 февраля, 23:00</tspan></text></g><g transform="translate(-66 51)"><g transform="translate(713 3021)"><path d="M0,0H62V62H0Z" fill="none"/><path d="M23.083,2A18.07,18.07,0,0,0,5,20.083C5,30.856,16.418,45.71,21.12,51.368a2.565,2.565,0,0,0,3.952,0c4.676-5.657,16.094-20.512,16.094-31.284A18.07,18.07,0,0,0,23.083,2Zm0,24.542a6.458,6.458,0,1,1,6.458-6.458A6.461,6.461,0,0,1,23.083,26.542Z" transform="translate(7.917 3.167)" fill="#fff"/></g><text transform="translate(796 3061)" fill="#fff" font-size="31" font-family="Helvetica"><tspan x="0" y="0">Билет на одного — 350 р., на двоих — 600 р.</tspan></text></g></g></svg>