<svg xmlns="http://www.w3.org/2000/svg" xmlns:xlink="http://www.w3.org/1999/xlink" width="344.055" height="83" viewBox="0 0 344.055 83"><defs><linearGradient id="a" x1="0.5" y1="1" x2="0.5" gradientUnits="objectBoundingBox"><stop offset="0" stop-color="#ffa027"/><stop offset="0.272" stop-color="#ffc151"/><stop offset="0.763" stop-color="#ffc93f"/><stop offset="1" stop-color="#ffe261"/></linearGradient></defs><g transform="translate(-205.158 -664.247)"><text transform="translate(312.213 728.247)" fill="#fff" font-size="82" font-family="Helvetica-Bold, Helvetica" font-weight="700"><tspan x="0" y="0">emovi</tspan></text><g transform="translate(15.89 316.991)"><g transform="translate(189.269 347.256)"><ellipse cx="37.713" cy="37.714" rx="37.713" ry="37.714" transform="translate(0 0)" fill="url(#a)"/><g transform="translate(41.033 20.011)"><path d="M54,25.8A10.375,10.375,0,1,1,43.625,15.425,10.378,10.378,0,0,1,54,25.8Z" transform="translate(-33.25 -15.425)" fill="#fff"/><ellipse cx="4.915" cy="4.915" rx="4.915" ry="4.915" transform="translate(5.461 5.461)" fill="#302c3b"/></g><g transform="translate(12.864 21.397)"><path d="M50.952,24.276A8.851,8.851,0,1,1,42.1,15.425,8.853,8.853,0,0,1,50.952,24.276Z" transform="translate(-33.25 -15.425)" fill="#fff"/><ellipse cx="4.193" cy="4.193" rx="4.193" ry="4.193" transform="translate(4.658 4.659)" fill="#302c3b"/></g><ellipse cx="6.494" cy="5.969" rx="6.494" ry="5.969" transform="translate(31.248 48.767)" fill="#302c3b"/><path d="M12.744,16.3c5.118-3.946,12.7-5.931,16.968-4.721.9.254,1.436,3.6.656,3.479-5.977-.89-12.508.161-17.464,3.495C12.239,19.006,11.973,16.893,12.744,16.3Z" transform="translate(-2.855 0.598)" fill="#917524"/><path d="M54.727,16.3c-5.12-3.942-12.7-5.928-16.968-4.719-.9.256-1.437,3.6-.659,3.48,5.977-.893,12.509.161,17.467,3.495C55.231,19,55.5,16.89,54.727,16.3Z" transform="translate(7.884 0.598)" fill="#917524"/><g transform="translate(27.771 13.02) rotate(-16)"><path d="M5.986,23.327c-1.431.687-2.8.816-3.051.284L.041,2.827C-.214,2.3.735,1.305,2.168.613h0C3.6-.075,4.968-.2,5.221.33L8.112,21.111c.254.53-.7,1.526-2.126,2.217Z" transform="translate(22.16 37.296)" fill="#1b1b1b"/><path d="M19.985,39.969a19.989,19.989,0,0,1-7.777-38.4A19.99,19.99,0,0,1,27.762,38.4,19.868,19.868,0,0,1,19.985,39.969Zm0-37.936A17.952,17.952,0,1,0,37.939,19.984,17.973,17.973,0,0,0,19.984,2.032Z" transform="translate(0 0)" fill="#1b1b1b"/><path d="M18.183,36.364A18.187,18.187,0,0,1,11.107,1.428,18.187,18.187,0,0,1,25.259,34.936,18.075,18.075,0,0,1,18.183,36.364ZM18.185,2A16.185,16.185,0,1,0,34.37,18.182,16.2,16.2,0,0,0,18.185,2Z" transform="translate(1.796 1.797)" fill="#292929"/><g transform="translate(3.795 3.795)" opacity="0.44"><g transform="translate(0 0)"><path d="M32.371,16.185A16.186,16.186,0,1,1,16.185,0,16.185,16.185,0,0,1,32.371,16.185Z" transform="translate(0 0)" fill="#fff"/><ellipse cx="14.188" cy="14.188" rx="14.188" ry="14.188" transform="translate(1.997 1.997)" fill="#b9d5de"/><path d="M6.394,0a14.186,14.186,0,0,0,7.794,26.041c.138,0,.277-.019.415-.022C.686,19.12,4.123,4.8,6.394,0Z" transform="translate(1.997 4.302)" fill="#eaf0f2"/></g></g></g><g transform="translate(79.777 63.771) rotate(159)"><path d="M7.685.55C1.46-1.06-1.272,5.385.561,11.119,1.217,13.17,4.967,12.8,4.967,12.8s3.9,1.992,5.322,1.882a33.8,33.8,0,0,0,4-1.228l-.6-4.489a6.5,6.5,0,0,0-.758-2.575,3.092,3.092,0,0,0-.582-2.982A2.981,2.981,0,0,0,7.685.55Z" transform="translate(0.561 0.659)" fill="#fff"/><path d="M8.116.627C1.4-1.142-1.229,6.149.532,11.564c.729,2.244,9.158,4.5,10.592,4.46s3.943-.762,4-2.892a8.928,8.928,0,0,0-.7-3.728,4.314,4.314,0,0,0-.453-2.489,3.456,3.456,0,0,0-.628-3.277A3.3,3.3,0,0,0,8.116.627ZM9.36,2.693l-.746-.944c3.069-1.69,5.219,2.281,1.974,3.732a3.029,3.029,0,0,0,1.9-.781c.951,1.63.848,2.687-1.037,4.105a3.037,3.037,0,0,0,1.76-1.032c.93,2.059.39,2.922-1.323,4a4.325,4.325,0,0,0,1.891-1.06c-.017-.424.622,1.393.2,2.571a1.57,1.57,0,0,1-.134.268c-.488.935-2.146,1.327-3.257,1.217-.832-.082-4.813-1.237-4.813-1.237s-3.655-1-4.084-2.565C-.232,3.948,4.2-.224,9.36,2.693Z" transform="translate(0 0)" fill="#99a8ae"/></g></g><g transform="translate(192.866 401.086)"><path d="M12.45,5.1c-.8-.814-2.519.425-1.434,1.533-.4.138-1.575.893.668,5.71l17.546,1.278a1.2,1.2,0,0,0,.437-1.605,1.245,1.245,0,0,0-1.134-1.876s1.629-1.148.325-2.479c.69-.7-.362-2.507-1.575-1.869a.959.959,0,1,0-1.918-.011H20.018c.587-.682-.731-2.643-2.14-1.206A.928.928,0,0,0,16.32,4.9S13.42,5.114,12.45,5.1Z" transform="translate(-9.762 -3.159)" fill="#f5cfa0"/><path d="M31.078,12.011c-.031.309-.791.379-.69-.329-.484-.147-.515-1.27.4-.841.293-.7,1.356-.268.826.563C32.016,11.82,31.535,12.48,31.078,12.011ZM36.633,9.83c-.031.309-.792.379-.69-.329-.485-.147-.516-1.27.4-.841.294-.7,1.357-.268.826.563C37.571,9.639,37.09,10.3,36.633,9.83ZM27.321,8.522c.031.309.791.379.689-.329.485-.147.516-1.27-.4-.841-.293-.7-1.356-.268-.826.563C26.382,8.331,26.863,8.991,27.321,8.522Z" transform="translate(-18.944 -4.819)" fill="#b47d56"/><path d="M26.576,8.377a1.041,1.041,0,0,0,.93-.259,1.056,1.056,0,0,0,1.458-.276.479.479,0,0,0,.594.115.932.932,0,0,0,.426,1.119s-1.085,2.518,1.953,2.518c3.689,0,2.773-4.051,1.519-4.051a1.321,1.321,0,0,0-1.344-2.1c1.244-.718.294-2.481-.852-1.851a.882.882,0,0,0-1.715.069.627.627,0,0,0-.925-.3c.313-1.442-1.24-1.636-1.553-1.023a1.009,1.009,0,1,0-1.452,1.4.777.777,0,0,0,.152,1.423.735.735,0,0,0,.282,1.083.327.327,0,0,0-.3.451.9.9,0,0,0-.972.1c-1.354-1.33-2.437.324-2.066.943-.866.234-.974,1.349-.974,1.759,0,2.2,4.838,3.2,4.839-1.116Z" transform="translate(-16.182 -1.998)" fill="#ffe8bb"/><path d="M33.026,5.76c-.015.154-.395.19-.345-.164-.242-.073-.258-.635.2-.421.146-.351.679-.135.413.282C33.5,5.664,33.255,6,33.026,5.76Z" transform="translate(-22.259 -3.69)" fill="#e5bc5e"/><path d="M51.641,21.111c-.015-.154-.395-.19-.345.164-.242.073-.258.635.2.421.146.351.679.134.413-.282C52.11,21.207,51.87,20.876,51.641,21.111Z" transform="translate(-32.755 -12.712)" fill="#b47d56"/><path d="M39.257,13.789c.3-.031.372-.808-.323-.7-.143-.494-1.244-.526-.824.406-.688.3-.262,1.384.553.844C39.07,14.747,39.717,14.256,39.257,13.789Zm-5.252-2.678c-.015-.154-.395-.19-.345.164-.243.073-.258.635.2.421.146.351.679.134.413-.282C34.474,11.207,34.234,10.876,34.005,11.111Z" transform="translate(-22.811 -7.074)" fill="#e5bc5e"/><path d="M17.864,15.223c-.031-.309-.791-.379-.69.329-.484.147-.515,1.27.4.841.292.7,1.356.268.826-.563C18.8,15.414,18.321,14.754,17.864,15.223Z" transform="translate(-13.42 -9.329)" fill="#b47d56"/><path d="M26.68,15.522c-.031.309-.791.379-.69-.329-.484-.147-.516-1.27.4-.841.293-.7,1.356-.268.826.563C27.618,15.331,27.137,15.991,26.68,15.522Z" transform="translate(-18.392 -8.766)" fill="#e5bc5e"/><path d="M10.8,12.316c-.934-.921-2.522.357-1.43,1.434-.612.211-.387,1.973.858,1.361.608.717,2.713.521,1.976-1.516C12.7,13.3,12.38,11.438,10.8,12.316Z" transform="translate(-9 -7.638)" fill="#ffe8bb"/><path d="M12.451,15.76c-.015.154-.394.19-.345-.164-.242-.073-.257-.635.2-.421.146-.351.679-.135.413.282C12.92,15.664,12.68,16,12.451,15.76Z" transform="translate(-10.657 -9.329)" fill="#e5bc5e"/><path d="M9,19.637c0,.436,2.137,17.446,2.137,17.446h2.991L12.845,19.637C12.689,17.2,9,17.2,9,19.637Z" transform="translate(-9 -10.913)" fill="#e03636"/><path d="M17.811,19.638l1.282,17.446h3.419l-.854-17.446C21.538,17.2,17.654,17.2,17.811,19.638Z" transform="translate(-13.966 -10.914)" fill="#e6ebef"/><path d="M26.636,19.728l.854,17.446h2.992V19.728C30.482,17.484,26.629,17.288,26.636,19.728Z" transform="translate(-18.944 -11.004)" fill="#e03636"/><path d="M43.593,36.722l1.282-15.265c.24-1.871-1.531-2.868-1.709-.872L42.311,38.03Z" transform="translate(-27.783 -11.86)" fill="#900"/><path d="M35.454,19.637V37.083h2.991s-.048-.121.855-17.446C39.426,17.2,35.454,17.2,35.454,19.637Z" transform="translate(-23.916 -10.914)" fill="#e6ebef"/><path d="M46.533,36.442l1.282-13.521c.167-1.76-1.124-2.315-1.282-.436L45.251,37.75Z" transform="translate(-29.44 -12.889)" fill="#99a8ae"/><path d="M49.472,35.821s0-.436,1.282-11.776c.185-1.639-.992-2.179-1.282-.436L48.19,37.129Z" transform="translate(-31.097 -13.577)" fill="#900"/><path d="M15.964,3.278c-1.233-1.353-3.287,1.152-1.1,2.5a1.083,1.083,0,0,0,1.916.977c.406.445,2.283.353,1.482-1.8C20.644,2.9,16.8.452,15.964,3.278Z" transform="translate(-11.763 -1.999)" fill="#ffe8bb"/><path d="M18.843,6.223c-.031-.309-.79-.379-.69.329-.484.147-.515,1.27.4.841.293.7,1.356.268.826-.563C19.781,6.414,19.3,5.754,18.843,6.223Zm8.974.872c-.031-.309-.792-.379-.69.329-.485.147-.515,1.27.4.841.294.7,1.356.268.826-.563C28.755,7.286,28.273,6.626,27.816,7.1Z" transform="translate(-13.973 -4.255)" fill="#e5bc5e"/></g></g></g></svg>