<svg xmlns="http://www.w3.org/2000/svg" width="96.318" height="54.954" viewBox="0 0 96.318 54.954"><path d="M95.808,167.378a6.6,6.6,0,0,0-.326-.627q-2.507-4.515-9.579-11.084l-.1-.1-.05-.049-.05-.05h-.051q-3.209-3.059-4.062-4.113a3.861,3.861,0,0,1-.7-4.063q.6-1.554,4.513-6.569,2.057-2.658,3.259-4.262,8.676-11.535,7.523-14.744l-.3-.5a2.933,2.933,0,0,0-1.554-.828,7.9,7.9,0,0,0-3.211-.125l-14.443.1a1.874,1.874,0,0,0-1,.025l-.652.151-.251.126-.2.151a2.229,2.229,0,0,0-.552.526,3.441,3.441,0,0,0-.5.878A81.886,81.886,0,0,1,68.153,133.5q-1.856,3.11-3.411,5.391a25.939,25.939,0,0,1-2.607,3.359,18.19,18.19,0,0,1-1.906,1.73q-.853.653-1.3.552c-.3-.067-.585-.134-.853-.2a3.335,3.335,0,0,1-1.128-1.229,5.5,5.5,0,0,1-.577-1.956q-.15-1.179-.176-2.031t.025-2.407q.052-1.555.05-2.106,0-1.906.074-4.137t.126-3.535q.051-1.3.05-2.759a11.588,11.588,0,0,0-.176-2.282,7.807,7.807,0,0,0-.525-1.6,2.7,2.7,0,0,0-1.028-1.2,5.8,5.8,0,0,0-1.68-.677,33.37,33.37,0,0,0-6.771-.652q-9.327-.1-11.986,1.2a6.756,6.756,0,0,0-1.905,1.5q-.9,1.1-.251,1.2a6.147,6.147,0,0,1,4.262,2.156l.3.6a9.593,9.593,0,0,1,.7,2.307,23.274,23.274,0,0,1,.451,3.66,39.037,39.037,0,0,1,0,6.269q-.251,2.608-.476,4.062a8.133,8.133,0,0,1-.677,2.357,9.943,9.943,0,0,1-.6,1.1.863.863,0,0,1-.25.251,3.757,3.757,0,0,1-1.354.251,3.178,3.178,0,0,1-1.705-.7,12.03,12.03,0,0,1-2.081-1.931,25.809,25.809,0,0,1-2.433-3.435q-1.353-2.206-2.808-5.215l-.8-1.455q-.752-1.4-2.056-4.087t-2.307-5.191a3.306,3.306,0,0,0-1.2-1.6l-.251-.151a3.433,3.433,0,0,0-.8-.426,5.322,5.322,0,0,0-1.153-.326l-13.741.1a3.492,3.492,0,0,0-2.859.953l-.2.3a1.622,1.622,0,0,0-.151.8,3.993,3.993,0,0,0,.3,1.354q3.009,7.072,6.544,13.641t6.143,10.581q2.608,4.012,5.316,7.573t3.585,4.564q.878,1,1.38,1.5l1.254,1.2a29.751,29.751,0,0,0,3.535,2.883,60.309,60.309,0,0,0,5.165,3.311,28.022,28.022,0,0,0,6.595,2.657,22.8,22.8,0,0,0,7.322.828h5.767a3.994,3.994,0,0,0,2.658-1.1l.2-.251a3.324,3.324,0,0,0,.376-.927,5.1,5.1,0,0,0,.176-1.379,16.525,16.525,0,0,1,.325-3.886,10.218,10.218,0,0,1,.853-2.608,6.41,6.41,0,0,1,1.078-1.479,4.358,4.358,0,0,1,.854-.728,3.276,3.276,0,0,1,.4-.175,3.183,3.183,0,0,1,2.834.778,16.645,16.645,0,0,1,3.059,2.909q1.429,1.731,3.435,3.886a23.6,23.6,0,0,0,3.51,3.21l1,.6a12.212,12.212,0,0,0,2.609,1.1,5.622,5.622,0,0,0,2.808.251l12.838-.2a5.818,5.818,0,0,0,2.959-.627,2.486,2.486,0,0,0,1.254-1.379,3.883,3.883,0,0,0,.025-1.706A6.3,6.3,0,0,0,95.808,167.378Z" transform="translate(-0.001 -117.748)" fill="#fff"/></svg>