<svg xmlns="http://www.w3.org/2000/svg" xmlns:xlink="http://www.w3.org/1999/xlink" width="71.799" height="72" viewBox="0 0 71.799 72"><defs><linearGradient id="a" x1="0.5" y1="1" x2="0.5" gradientUnits="objectBoundingBox"><stop offset="0" stop-color="#ffa027"/><stop offset="0.272" stop-color="#ffc151"/><stop offset="0.763" stop-color="#ffc93f"/><stop offset="1" stop-color="#ffe261"/></linearGradient></defs><g transform="translate(0 0)"><ellipse cx="33.941" cy="33.942" rx="33.941" ry="33.942" transform="translate(0 0)" fill="url(#a)"/><g transform="translate(36.93 18.01)"><path d="M51.925,24.763a9.338,9.338,0,1,1-9.338-9.338A9.34,9.34,0,0,1,51.925,24.763Z" transform="translate(-33.25 -15.425)" fill="#fff"/><ellipse cx="4.423" cy="4.423" rx="4.423" ry="4.423" transform="translate(4.915 4.915)" fill="#302c3b"/></g><g transform="translate(11.577 19.257)"><path d="M49.182,23.391a7.966,7.966,0,1,1-7.966-7.966A7.968,7.968,0,0,1,49.182,23.391Z" transform="translate(-33.25 -15.425)" fill="#fff"/><ellipse cx="3.773" cy="3.773" rx="3.773" ry="3.773" transform="translate(4.193 4.193)" fill="#302c3b"/></g><ellipse cx="5.845" cy="5.372" rx="5.845" ry="5.372" transform="translate(28.123 43.89)" fill="#302c3b"/><path d="M12.7,15.8c4.606-3.551,11.43-5.338,15.271-4.249.809.228,1.292,3.237.591,3.131a22.648,22.648,0,0,0-15.718,3.145C12.243,18.228,12,16.326,12.7,15.8Z" transform="translate(-3.797 -0.585)" fill="#917524"/><path d="M52.927,15.792c-4.608-3.548-11.431-5.335-15.271-4.247-.811.231-1.293,3.236-.593,3.132a22.643,22.643,0,0,1,15.72,3.145C53.38,18.225,53.62,16.324,52.927,15.792Z" transform="translate(3.423 -0.585)" fill="#917524"/><g transform="translate(24.993 11.718) rotate(-16)"><path d="M5.387,20.995c-1.288.619-2.516.735-2.746.255L.037,2.545c-.23-.478.624-1.37,1.914-1.993h0C3.237-.067,4.471-.184,4.7.3L7.3,19c.229.477-.629,1.373-1.914,2Z" transform="translate(19.944 33.566)" fill="#1b1b1b"/><path d="M17.986,35.972a17.99,17.99,0,0,1-7-34.559,17.991,17.991,0,0,1,14,33.147A17.881,17.881,0,0,1,17.986,35.972Zm0-34.143a16.157,16.157,0,1,0,16.16,16.157A16.175,16.175,0,0,0,17.985,1.829Z" transform="translate(0 0)" fill="#1b1b1b"/><path d="M16.365,32.728A16.368,16.368,0,0,1,10,1.285,16.369,16.369,0,0,1,22.733,31.442,16.268,16.268,0,0,1,16.365,32.728Zm0-30.931A14.567,14.567,0,1,0,30.933,16.364,14.584,14.584,0,0,0,16.366,1.8Z" transform="translate(1.617 1.618)" fill="#292929"/><g transform="translate(3.416 3.415)" opacity="0.44"><g transform="translate(0 0)"><path d="M29.134,14.567A14.567,14.567,0,1,1,14.566,0,14.566,14.566,0,0,1,29.134,14.567Z" transform="translate(0 0)" fill="#fff"/><ellipse cx="12.769" cy="12.769" rx="12.769" ry="12.769" transform="translate(1.797 1.797)" fill="#b9d5de"/><path d="M5.754,0a12.768,12.768,0,0,0,7.015,23.437c.124,0,.249-.017.374-.02C.617,17.208,3.711,4.316,5.754,0Z" transform="translate(1.797 3.872)" fill="#eaf0f2"/></g></g></g><g transform="translate(71.799 57.394) rotate(159)"><path d="M6.917.5C1.314-.954-1.145,4.846.5,10.007,1.1,11.853,4.47,11.523,4.47,11.523s3.509,1.793,4.79,1.694a30.422,30.422,0,0,0,3.6-1.106l-.538-4.04a5.848,5.848,0,0,0-.682-2.318,2.783,2.783,0,0,0-.524-2.684A2.683,2.683,0,0,0,6.917.5Z" transform="translate(0.505 0.593)" fill="#fff"/><path d="M7.3.564C1.259-1.028-1.106,5.534.479,10.407c.656,2.02,8.242,4.046,9.533,4.014s3.549-.685,3.6-2.6a8.035,8.035,0,0,0-.627-3.355,3.882,3.882,0,0,0-.408-2.24,3.11,3.11,0,0,0-.565-2.949A2.97,2.97,0,0,0,7.3.564Zm1.12,1.859-.671-.85c2.762-1.521,4.7,2.053,1.776,3.359a2.726,2.726,0,0,0,1.71-.7C12.1,5.7,12,6.647,10.306,7.924a2.734,2.734,0,0,0,1.584-.929c.837,1.853.351,2.63-1.191,3.6a3.892,3.892,0,0,0,1.7-.954c-.015-.381.559,1.254.181,2.313a1.413,1.413,0,0,1-.121.241c-.439.842-1.931,1.194-2.931,1.1C8.781,13.214,5.2,12.174,5.2,12.174s-3.29-.9-3.676-2.308C-.209,3.553,3.78-.2,8.424,2.423Z" transform="translate(0 0)" fill="#99a8ae"/></g></g><g transform="translate(3.237 48.447)"><path d="M12.24,4.992c-.718-.733-2.267.383-1.29,1.379-.36.124-1.418.8.6,5.139l15.792,1.15a1.082,1.082,0,0,0,.393-1.445,1.12,1.12,0,0,0-1.021-1.688S28.182,8.5,27.008,7.3c.621-.633-.326-2.256-1.417-1.682a.864.864,0,1,0-1.726-.01H19.051c.529-.614-.658-2.378-1.926-1.085a.835.835,0,0,0-1.4.3S13.113,5.008,12.24,4.992Z" transform="translate(-9.82 -3.249)" fill="#f5cfa0"/><path d="M30.633,11.51c-.027.278-.712.341-.621-.3-.436-.132-.464-1.143.358-.757.264-.632,1.221-.241.743.507C31.478,11.338,31.045,11.932,30.633,11.51Zm5-1.963c-.028.278-.712.341-.621-.3-.436-.132-.464-1.143.357-.757.264-.632,1.221-.241.743.507C36.478,9.376,36.044,9.969,35.633,9.547ZM27.252,8.37c.027.278.712.341.62-.3.436-.132.464-1.143-.357-.757-.264-.632-1.22-.241-.744.507C26.408,8.2,26.841,8.792,27.252,8.37Z" transform="translate(-19.713 -5.037)" fill="#b47d56"/><path d="M26.092,7.739a.937.937,0,0,0,.837-.233.951.951,0,0,0,1.312-.248.431.431,0,0,0,.534.1.838.838,0,0,0,.383,1.007s-.976,2.266,1.758,2.266c3.32,0,2.5-3.646,1.367-3.646A1.189,1.189,0,0,0,31.074,5.1c1.119-.646.264-2.233-.767-1.666a.794.794,0,0,0-1.544.062.564.564,0,0,0-.832-.271c.281-1.3-1.116-1.472-1.4-.921A.908.908,0,1,0,25.227,3.56a.7.7,0,0,0,.137,1.28.661.661,0,0,0,.254.974.3.3,0,0,0-.269.405.809.809,0,0,0-.875.091c-1.219-1.2-2.193.292-1.86.849-.78.211-.877,1.214-.877,1.583,0,1.981,4.354,2.878,4.355-1Z" transform="translate(-16.737 -1.998)" fill="#ffe8bb"/><path d="M32.975,5.684c-.013.139-.355.171-.31-.148-.218-.066-.232-.572.179-.379.132-.316.611-.121.372.254C33.4,5.6,33.181,5.9,32.975,5.684Z" transform="translate(-23.284 -3.821)" fill="#e5bc5e"/><path d="M51.59,21.1c-.013-.139-.355-.171-.31.148-.218.066-.232.571.179.379.132.316.611.121.372-.254C52.012,21.186,51.8,20.889,51.59,21.1Z" transform="translate(-34.592 -13.541)" fill="#b47d56"/><path d="M38.681,13.51c.272-.028.334-.727-.29-.634-.128-.445-1.12-.473-.741.365-.619.27-.236,1.246.5.759C38.512,14.372,39.095,13.93,38.681,13.51ZM33.954,11.1c-.013-.139-.355-.171-.31.148-.218.066-.232.571.179.379.131.316.611.121.372-.254C34.376,11.186,34.16,10.889,33.954,11.1Z" transform="translate(-23.879 -7.466)" fill="#e5bc5e"/><path d="M17.761,15.2c-.028-.278-.712-.341-.621.3-.436.132-.464,1.143.358.757.263.632,1.22.241.743-.507C18.605,15.373,18.173,14.779,17.761,15.2Z" transform="translate(-13.762 -9.896)" fill="#b47d56"/><path d="M26.578,15.37c-.028.278-.712.341-.621-.3-.436-.132-.464-1.143.357-.757.264-.632,1.22-.241.743.507C27.422,15.2,26.989,15.792,26.578,15.37Z" transform="translate(-19.118 -9.289)" fill="#e5bc5e"/><path d="M10.62,12.285c-.84-.829-2.27.321-1.287,1.29-.551.19-.348,1.775.772,1.225.547.645,2.442.469,1.779-1.364C12.33,13.174,12.042,11.494,10.62,12.285Z" transform="translate(-9 -8.074)" fill="#ffe8bb"/><path d="M12.4,15.684c-.013.139-.355.171-.31-.148-.218-.066-.231-.572.179-.379.131-.316.611-.121.372.254C12.822,15.6,12.605,15.9,12.4,15.684Z" transform="translate(-10.785 -9.896)" fill="#e5bc5e"/><path d="M9,19.454c0,.393,1.923,15.7,1.923,15.7h2.692l-1.154-15.7C12.32,17.263,9,17.258,9,19.454Z" transform="translate(-9 -11.603)" fill="#e03636"/><path d="M17.811,19.455l1.154,15.7h3.077l-.769-15.7C21.165,17.262,17.67,17.264,17.811,19.455Z" transform="translate(-14.35 -11.604)" fill="#e6ebef"/><path d="M26.636,19.552l.769,15.7H30.1v-15.7C30.1,17.532,26.63,17.357,26.636,19.552Z" transform="translate(-19.713 -11.701)" fill="#e03636"/><path d="M43.465,35,44.619,21.26c.216-1.684-1.378-2.581-1.538-.785l-.769,15.7Z" transform="translate(-29.235 -12.623)" fill="#900"/><path d="M35.454,19.455v15.7h2.692s-.043-.109.769-15.7C39.029,17.261,35.454,17.262,35.454,19.455Z" transform="translate(-25.07 -11.603)" fill="#e6ebef"/><path d="M46.4,34.929l1.154-12.168c.15-1.584-1.012-2.084-1.154-.393L45.251,36.107Z" transform="translate(-31.021 -13.732)" fill="#99a8ae"/><path d="M49.344,34.492s0-.393,1.154-10.6c.166-1.475-.893-1.961-1.154-.393L48.19,35.67Z" transform="translate(-32.807 -14.472)" fill="#900"/><path d="M15.758,3.15C14.648,1.933,12.8,4.187,14.765,5.4a.975.975,0,0,0,1.724.879c.365.4,2.055.318,1.333-1.619C19.97,2.813,16.508.607,15.758,3.15Z" transform="translate(-11.977 -1.999)" fill="#ffe8bb"/><path d="M18.74,6.2c-.028-.278-.711-.341-.621.3-.436.132-.463,1.143.358.757.263.632,1.221.241.743-.507C19.585,6.372,19.152,5.779,18.74,6.2Zm8.076.785c-.028-.278-.712-.341-.621.3-.436.132-.464,1.143.358.757.264.632,1.221.241.743-.507C27.661,7.158,27.228,6.564,26.817,6.986Z" transform="translate(-14.357 -4.429)" fill="#e5bc5e"/></g></svg>